<?xml version="1.0" encoding="utf-8"?>
<!-- Generator: Adobe Illustrator 22.1.0, SVG Export Plug-In . SVG Version: 6.00 Build 0)  -->
<svg version="1.1" id="Слой_1" xmlns="http://www.w3.org/2000/svg" xmlns:xlink="http://www.w3.org/1999/xlink" x="0px" y="0px"
	 width="1920px" height="16px" viewBox="0 0 1920 16" style="enable-background:new 0 0 1920 16;" xml:space="preserve">
<style type="text/css">
	.st0{fill:#FEBE39;}
</style>
<g id="Иллюстрация_6" transform="translate(139.72 8)">
	<g id="Group_4445" transform="translate(-139.72 -8)">
		<path id="Path_883" class="st0" d="M0,7.5h929.6v1.1H0V7.5z M990.4,7.5H1920v1.1H990.4V7.5z"/>
		<path id="Path_884" class="st0" d="M963.3,3.3v9.3c0,1.8-1.5,3.3-3.3,3.3s-3.3-1.5-3.3-3.3V3.3c0-1.8,1.5-3.3,3.3-3.3
			C961.9,0,963.3,1.5,963.3,3.3z"/>
		<path id="Path_885" class="st0" d="M971.8,4v8c0,1.6-1.3,2.8-2.9,2.8c-1.5,0-2.8-1.3-2.8-2.8V4c0-1.6,1.3-2.8,2.9-2.8
			C970.6,1.3,971.8,2.5,971.8,4z"/>
		<path id="Path_886" class="st0" d="M978.1,4.7v6.5c0,1.3-1.1,2.3-2.3,2.3c-1.3,0-2.3-1.1-2.3-2.3V4.7c0-1.3,1.1-2.3,2.3-2.3
			C977.1,2.4,978.1,3.4,978.1,4.7z"/>
		<path id="Path_887" class="st0" d="M983,5.4v5.1c0,1-0.8,1.9-1.8,1.9s-1.9-0.8-1.9-1.8v-0.1V5.4c0-1,0.8-1.9,1.8-1.9
			S983,4.3,983,5.4L983,5.4z"/>
		<path id="Path_888" class="st0" d="M987,6.1v3.7c0,0.7-0.6,1.4-1.3,1.4s-1.4-0.6-1.4-1.3c0,0,0,0,0-0.1V6.1c0-0.7,0.6-1.4,1.3-1.4
			S987,5.3,987,6.1L987,6.1z"/>
		<path id="Path_889" class="st0" d="M990.4,6.8v2.3c0,0.5-0.4,0.8-0.8,0.8c-0.5,0-0.8-0.4-0.8-0.8l0,0V6.8c0-0.5,0.4-0.8,0.8-0.8
			S990.4,6.3,990.4,6.8z"/>
		<path id="Path_890" class="st0" d="M948.2,4v8c0,1.6,1.3,2.8,2.8,2.8c1.6,0,2.8-1.3,2.8-2.8V4c0-1.6-1.3-2.8-2.8-2.8
			C949.4,1.2,948.2,2.5,948.2,4z"/>
		<path id="Path_891" class="st0" d="M941.9,4.7v6.5c0,1.3,1.1,2.3,2.3,2.3c1.3,0,2.3-1.1,2.3-2.3V4.7c0-1.3-1.1-2.3-2.3-2.3
			C942.9,2.4,941.9,3.4,941.9,4.7z"/>
		<path id="Path_892" class="st0" d="M937,5.4v5.1c0,1,0.8,1.8,1.8,1.8s1.8-0.8,1.8-1.8l0,0V5.4c0-1-0.8-1.8-1.8-1.8
			C937.8,3.6,937,4.4,937,5.4L937,5.4z"/>
		<path id="Path_893" class="st0" d="M933,6.1v3.7c0,0.7,0.6,1.4,1.3,1.4s1.4-0.6,1.4-1.3c0,0,0,0,0-0.1V6.1c0-0.7-0.6-1.4-1.3-1.4
			S933,5.3,933,6.1L933,6.1z"/>
		<path id="Path_894" class="st0" d="M929.6,6.8v2.3c0,0.5,0.4,0.8,0.8,0.8c0.5,0,0.8-0.4,0.8-0.8l0,0V6.8c0-0.5-0.4-0.8-0.8-0.8
			S929.6,6.3,929.6,6.8z"/>
	</g>
</g>
</svg>
